<svg xmlns="http://www.w3.org/2000/svg" width="27.791" height="27.791" viewBox="44 501 27.791 27.791"><path d="M57.882 501C50.212 501 44 507.225 44 514.895s6.211 13.896 13.882 13.896c7.684 0 13.909-6.225 13.909-13.896 0-7.67-6.225-13.895-13.91-13.895Zm.013 25.012c-6.141 0-11.116-4.975-11.116-11.117 0-6.141 4.975-11.116 11.116-11.116 6.142 0 11.117 4.975 11.117 11.116 0 6.142-4.975 11.117-11.117 11.117Zm.695-18.064h-2.084v8.337l7.295 4.377 1.042-1.71-6.253-3.71v-7.294Z" fill="#4d575d" fill-rule="evenodd" data-name="Icon material-schedule"/></svg>