<svg xmlns="http://www.w3.org/2000/svg" width="25.986" height="20.789" viewBox="36 562 25.986 20.789"><path d="M45.095 572.394a5.197 5.197 0 1 0 0-10.393 5.197 5.197 0 0 0 0 10.393Zm3.638 1.3h-.678a7.076 7.076 0 0 1-5.92 0h-.678A5.458 5.458 0 0 0 36 579.15v1.689a1.95 1.95 0 0 0 1.949 1.949h14.292a1.95 1.95 0 0 0 1.95-1.95v-1.688a5.458 5.458 0 0 0-5.458-5.457Zm13.115-5.214-1.129-1.14a.482.482 0 0 0-.682-.005l-4.255 4.223-1.848-1.86a.482.482 0 0 0-.682-.004l-1.14 1.133a.482.482 0 0 0-.005.682l3.318 3.342c.186.19.49.19.682.004l5.737-5.693a.485.485 0 0 0 .004-.682Z" fill="#4d575d" fill-rule="evenodd" data-name="Icon awesome-user-check"/></svg>