<svg xmlns="http://www.w3.org/2000/svg" width="33.247" height="26.597" viewBox="179.867 375.919 33.247 26.597"><path d="M191.504 389.217a6.649 6.649 0 0 0 6.649-6.649 6.649 6.649 0 0 0-6.65-6.65 6.649 6.649 0 0 0-6.649 6.65 6.649 6.649 0 0 0 6.65 6.65Zm4.654 1.663h-.867a9.053 9.053 0 0 1-7.574 0h-.868a6.984 6.984 0 0 0-6.982 6.982v2.16a2.494 2.494 0 0 0 2.494 2.494h18.285a2.494 2.494 0 0 0 2.494-2.493v-2.161a6.984 6.984 0 0 0-6.982-6.982Zm16.78-6.67-1.445-1.46a.616.616 0 0 0-.873-.005l-5.444 5.402-2.363-2.379a.616.616 0 0 0-.873-.005l-1.46 1.45a.616.616 0 0 0-.005.872l4.244 4.275a.616.616 0 0 0 .873.005l7.34-7.283a.62.62 0 0 0 .005-.872Z" fill="#78a688" fill-rule="evenodd" data-name="Icon awesome-user-check"/></svg>