<svg xmlns="http://www.w3.org/2000/svg" width="24.735" height="26.67" viewBox="34.638 499.665 24.735 26.67"><path d="M57.46 526.335H36.243c-.04-.037-.072-.093-.119-.11-1.24-.437-1.486-.775-1.486-2.06v-19.057c0-1.737.86-2.586 2.62-2.59 1.145-.001 2.29-.031 3.432.014.527.02.704-.123.636-.646-.118-.92.02-1.75.962-2.221h.83c.803.383 1.117 1.033 1.041 1.9-.013.156.015.317-.007.471-.055.383.088.497.478.491 1.498-.023 2.996-.04 4.493.006.609.02.84-.137.753-.758-.129-.935.116-1.707 1.065-2.11h.711c.54.282 1.005.63 1.059 1.299.026.334.036.674.002 1.006-.043.427.076.576.538.561a76.47 76.47 0 0 1 3.554-.01c1.71.027 2.567.897 2.567 2.585 0 6.378 0 12.756-.002 19.133 0 1.095-.587 1.78-1.687 1.976-.09.016-.204-.024-.223.12Zm-10.493-16.184c3.337 0 6.675-.005 10.012.006.353.001.522-.042.515-.47-.028-1.618-.02-3.238-.003-4.857.003-.34-.1-.43-.432-.423-1.085.02-2.172.008-3.258.007-1.017-.002-1.017-.003-1.08 1.006-.049.785-.658 1.372-1.42 1.368-.804-.004-1.4-.591-1.433-1.411-.005-.118-.015-.24.004-.355.08-.473-.07-.638-.586-.623-1.38.042-2.764.015-4.146.015-.92 0-.918-.001-.984.925-.01.137-.04.273-.074.407-.178.699-.812 1.115-1.567 1.035-.66-.07-1.167-.632-1.192-1.325-.007-.217-.021-.436 0-.65.033-.312-.085-.403-.395-.4-1.323.016-2.646.022-3.969 0-.375-.007-.462.11-.457.469.02 1.48.01 2.961.01 4.442 0 .833 0 .833.858.833h9.597Zm-2.209 7.469c.009-.018.013-.044.027-.051.087-.045.175-.089.266-.127 1.011-.425 1.567-1.184 1.56-2.28-.006-1.094-.574-1.864-1.572-2.285-1.275-.539-2.576-.425-3.87-.07-1.301.358-1.299.366-.933 1.614.022.075.04.152.052.23.062.381.21.41.57.25.816-.364 1.672-.601 2.572-.292.427.147.71.446.733.906.023.45-.199.784-.607.997-.303.158-.627.207-.957.267-.436.079-1.05-.203-1.27.167-.209.352-.043.92-.07 1.39-.016.311.092.41.405.406.568-.006 1.14-.054 1.701.118.732.225 1.098.67 1.071 1.352-.024.602-.41.988-1.133 1.158-.989.234-1.907-.029-2.817-.374-.133-.05-.341-.247-.403-.074-.196.549-.328 1.122-.458 1.692-.027.121.15.174.253.215 1.828.73 3.668.869 5.474-.029 1.148-.57 1.737-1.703 1.595-2.853-.157-1.269-.808-1.96-2.189-2.327Zm6.539-2.717v.643c0 1.856-.01 3.712.005 5.567.005.624-.275 1.481.117 1.806.377.313 1.204.07 1.831.101.33.017.431-.078.43-.42-.013-3.218-.015-6.436.001-9.654.002-.383-.132-.428-.474-.456-1.057-.085-2.02.133-2.918.699-.447.281-1.17.341-1.343.768-.168.41.143 1.009.216 1.529.044.311.153.356.427.218.538-.27 1.09-.513 1.708-.801Z" fill="#4d575d" fill-rule="evenodd" data-name="ic_calendra"/></svg>