<svg xmlns="http://www.w3.org/2000/svg" width="27" height="27" viewBox="559.75 401 27 27"><path d="M573.25 428c7.457 0 13.5-6.043 13.5-13.5s-6.043-13.5-13.5-13.5-13.5 6.043-13.5 13.5 6.043 13.5 13.5 13.5Zm-2.817-18.764a1.257 1.257 0 0 1 0-1.772c.247-.246.565-.363.883-.363.318 0 .642.123.889.37l6.101 6.12a1.251 1.251 0 0 1-.039 1.727l-6.192 6.211a1.252 1.252 0 0 1-1.772 0 1.252 1.252 0 0 1 0-1.772l5.316-5.257-5.186-5.264Z" fill="#4d575d" fill-rule="evenodd" data-name="Icon ionic-ios-arrow-dropleft-circle"/></svg>