<!DOCTYPE svg PUBLIC "-//W3C//DTD SVG 1.1//EN" "http://www.w3.org/Graphics/SVG/1.1/DTD/svg11.dtd">
<!-- Uploaded to: SVG Repo, www.svgrepo.com, Transformed by: SVG Repo Mixer Tools -->
<svg fill="#ffffff" height="800px" width="800px" version="1.1" id="Layer_1" xmlns="http://www.w3.org/2000/svg" xmlns:xlink="http://www.w3.org/1999/xlink" viewBox="0 0 512 512" xml:space="preserve" stroke="#ffffff">
<g id="SVGRepo_bgCarrier" stroke-width="0"/>
<g id="SVGRepo_tracerCarrier" stroke-linecap="round" stroke-linejoin="round"/>
<g id="SVGRepo_iconCarrier"> <g> <g> <path d="M256,0C114.512,0,0,114.497,0,256c0,141.488,114.497,256,256,256c141.488,0,256-114.497,256-256 C512,114.512,397.503,0,256,0z M238.933,477.217c-108.761-8.313-195.838-95.389-204.15-204.15h85.749 c7.724,61.666,56.735,110.677,118.402,118.402V477.217z M238.933,356.97c-42.816-7.214-76.69-41.087-83.903-83.903h83.903V356.97z M238.933,238.933H155.03c7.214-42.816,41.087-76.69,83.903-83.903V238.933z M238.933,120.532 c-61.666,7.724-110.677,56.735-118.402,118.402H34.783c8.313-108.761,95.389-195.838,204.15-204.15V120.532z M273.067,34.783 c108.761,8.313,195.838,95.389,204.15,204.15h-85.749c-7.724-61.666-56.735-110.677-118.402-118.402V34.783z M273.067,155.03 c42.816,7.214,76.69,41.087,83.903,83.903h-83.903V155.03z M273.067,273.067h83.903c-7.215,42.816-41.089,76.69-83.903,83.903 V273.067z M273.067,477.217v-85.749c61.666-7.724,110.677-56.735,118.402-118.402h85.749 C468.904,381.828,381.828,468.904,273.067,477.217z"/> </g> </g> </g>
</svg>