<svg xmlns="http://www.w3.org/2000/svg" width="28.199" height="26.256" viewBox="268.122 745.744 28.199 26.256"><g data-name="Group 8115"><g data-name="Group 8087"><g data-name="Group 8086"><g data-name="Group 8085"><path d="M353.673 326.519a6.092 6.092 0 1 0-.001 12.181 6.092 6.092 0 0 0 0-12.181Zm.39 10.595v-.526a.392.392 0 1 0-.783 0v.526a4.526 4.526 0 0 1-4.111-4.111h.527a.392.392 0 0 0 0-.784h-.527a4.526 4.526 0 0 1 4.111-4.111v.527a.392.392 0 1 0 .783 0v-.527a4.524 4.524 0 0 1 4.112 4.111h-.528a.391.391 0 1 0 0 .784h.528a4.524 4.524 0 0 1-4.112 4.111Z" fill-rule="evenodd" fill="#78a688" transform="translate(-63.442 433.298)" data-name="Path 50062"/></g></g></g><g data-name="Group 8090"><g data-name="Group 8089"><g data-name="Group 8088"><path d="M432.962 394.006h-1.413a1.042 1.042 0 0 0-.857-.452l-.017.001-1.288-1.813a.59.59 0 0 0-.82-.138.59.59 0 0 0-.138.822l1.289 1.813a1.038 1.038 0 0 0 1.831.944h1.413a.587.587 0 1 0 0-1.177Z" fill-rule="evenodd" fill="#78a688" transform="translate(-140.462 371.315)" data-name="Path 50063"/></g></g></g><g data-name="Group 8093"><g data-name="Group 8092"><g data-name="Group 8091"><path d="M87.34 29.12a1.928 1.928 0 0 0 1.928-1.928v-4.185a1.928 1.928 0 1 0-3.856 0v4.185c0 1.064.862 1.928 1.928 1.928Z" fill-rule="evenodd" fill="#78a688" transform="translate(186.646 724.665)" data-name="Path 50064"/></g></g></g><g data-name="Group 8096"><g data-name="Group 8095"><g data-name="Group 8094"><path d="M343.673 29.12a1.928 1.928 0 0 0 1.93-1.928v-4.185a1.928 1.928 0 1 0-3.857 0v4.185c0 1.064.863 1.928 1.927 1.928Z" fill-rule="evenodd" fill="#78a688" transform="translate(-57.877 724.665)" data-name="Path 50065"/></g></g></g><g data-name="Group 8099"><g data-name="Group 8098"><g data-name="Group 8097"><path d="M104.405 291.163a.996.996 0 0 0-.996-.996h-1.848a.997.997 0 0 0-.998.996v1.848c0 .55.447.998.998.998h1.848a.997.997 0 0 0 .996-.998v-1.848Z" fill-rule="evenodd" fill="#78a688" transform="translate(172.193 467.975)" data-name="Path 50066"/></g></g></g><g data-name="Group 8102"><g data-name="Group 8101"><g data-name="Group 8100"><path d="M217.617 291.199a.996.996 0 0 0-.995-.996h-1.849a.995.995 0 0 0-.996.996v1.848c0 .55.446.996.996.996h1.849c.55 0 .995-.447.995-.996v-1.848Z" fill-rule="evenodd" fill="#78a688" transform="translate(64.195 467.941)" data-name="Path 50067"/></g></g></g><g data-name="Group 8105"><g data-name="Group 8104"><g data-name="Group 8103"><path d="M327.892 290.167a.997.997 0 0 0-.998.996v1.848c0 .498.372.892.849.966a7.404 7.404 0 0 1 2.991-2.656v-.158a.996.996 0 0 0-.996-.996h-1.846Z" fill-rule="evenodd" fill="#78a688" transform="translate(-43.71 467.975)" data-name="Path 50068"/></g></g></g><g data-name="Group 8108"><g data-name="Group 8107"><g data-name="Group 8106"><path d="M101.569 398.833a.997.997 0 0 0-.998.996v1.848c0 .55.447.996.998.996h1.848c.551 0 .996-.446.996-.996v-1.848a.995.995 0 0 0-.996-.996h-1.848Z" fill-rule="evenodd" fill="#78a688" transform="translate(172.185 364.316)" data-name="Path 50069"/></g></g></g><g data-name="Group 8111"><g data-name="Group 8110"><g data-name="Group 8109"><path d="M216.612 398.851h-1.847a.996.996 0 0 0-.996.997v1.846c0 .55.446.996.996.996h1.847c.55 0 .996-.445.996-.996v-1.846a.997.997 0 0 0-.996-.997Z" fill-rule="evenodd" fill="#78a688" transform="translate(64.203 364.3)" data-name="Path 50070"/></g></g></g><g data-name="Group 8114"><g data-name="Group 8113"><g data-name="Group 8112"><path d="M15.387 121.62H6.012a2.93 2.93 0 0 1-2.927-2.925v-9.792h17.369v2.562a7.352 7.352 0 0 1 1.654-.194c.489 0 .966.05 1.43.142v-9.209h-2.779v2.375a3.088 3.088 0 0 1-3.085 3.084 3.088 3.088 0 0 1-3.085-3.084v-2.375h-5.64v2.375a3.089 3.089 0 0 1-3.086 3.084 3.088 3.088 0 0 1-3.085-3.084v-2.375H0v16.49a6.012 6.012 0 0 0 6.012 6.012h11.513c.137 0 .272-.011.406-.02a7.402 7.402 0 0 1-2.544-3.066Z" fill-rule="evenodd" fill="#78a688" transform="translate(268.122 647.278)" data-name="Path 50071"/></g></g></g></g></svg>