<svg xmlns="http://www.w3.org/2000/svg" width="25.256" height="25.256" viewBox="159.4 501.744 25.256 25.256"><g data-name="ic_doubts"><g data-name="Group 8119"><path d="M32.96 5.92A2.963 2.963 0 0 1 30 2.96 2.963 2.963 0 0 1 32.96 0a2.963 2.963 0 0 1 2.96 2.96 2.963 2.963 0 0 1-2.96 2.96Z" fill-rule="evenodd" fill="#78a688" transform="translate(130.88 501.744)" data-name="Path 50076"/></g><g data-name="Group 8120"><path d="M364.96 307.92a2.963 2.963 0 0 1-2.96-2.96 2.963 2.963 0 0 1 2.96-2.96 2.963 2.963 0 0 1 2.96 2.96 2.963 2.963 0 0 1-2.96 2.96Z" fill-rule="evenodd" fill="#78a688" transform="translate(-184.744 214.641)" data-name="Path 50077"/></g><path d="M15.75 247.95a6.28 6.28 0 0 1-3.398-2.724A6.592 6.592 0 0 0 6.659 242 6.667 6.667 0 0 0 0 248.66a6.667 6.667 0 0 0 6.66 6.659 6.595 6.595 0 0 0 5.687-3.217 6.347 6.347 0 0 1 3.426-2.741.734.734 0 0 0 .494-.706.757.757 0 0 0-.518-.706Zm-9.09 4.409a.74.74 0 1 1 0-1.48.74.74 0 0 1 0 1.48Zm.749-3.09c0 .41-.336.805-.745.805s-.745-.266-.745-.675c0-.746.398-1.311.991-1.522a.74.74 0 1 1-2.47-.697c0-1.225.995-2.22 2.22-2.22 1.223 0 2.22.995 2.22 2.22 0 .934-.592 1.774-1.471 2.09Z" fill-rule="evenodd" fill="#78a688" transform="translate(159.4 271.681)" data-name="Path 50078"/><g data-name="Group 8121"><path d="M8.14 124.44H.74a.74.74 0 0 1-.74-.74c0-2.04 1.66-3.7 3.7-3.7h1.48c2.04 0 3.7 1.66 3.7 3.7a.74.74 0 0 1-.74.74Z" fill-rule="evenodd" fill="#78a688" transform="translate(159.4 387.663)" data-name="Path 50079"/></g><g data-name="Group 8122"><path d="M340.14 426.44h-7.4a.74.74 0 0 1-.74-.74c0-2.04 1.66-3.7 3.7-3.7h1.48c2.04 0 3.7 1.66 3.7 3.7a.74.74 0 0 1-.74.74Z" fill-rule="evenodd" fill="#78a688" transform="translate(-156.223 100.56)" data-name="Path 50080"/></g><path d="M191.574 0c-3.126 0-4.496 1.234-5.693 3.225-1.118 1.86-2.555 2.378-3.168 2.6-.296.106-.6.216-.724.589a.753.753 0 0 0 .476.948 6.344 6.344 0 0 1 3.421 2.74 6.594 6.594 0 0 0 5.688 3.217 6.667 6.667 0 0 0 6.659-6.66A6.667 6.667 0 0 0 191.573 0Zm2.832 5.613-3.05 3.05a.737.737 0 0 1-1.045 0l-1.57-1.57a.74.74 0 1 1 1.046-1.046l1.047 1.046 2.526-2.526a.74.74 0 1 1 1.046 1.046Z" fill-rule="evenodd" fill="#78a688" transform="translate(-13.577 501.744)" data-name="Path 50081"/></g></svg>