<svg xmlns="http://www.w3.org/2000/svg" width="27.285" height="26.67" viewBox="313.003 501.744 27.285 26.67"><g data-name="ic_gallery"><path d="m946.255 313.726-4.948-17.205 17.202-4.951 4.953 17.204-17.207 4.952Zm11.12-20.101-14.013 4.031 2.828 9.836c.781-1.137 1.473-2.154 1.809-3.37.208-.752.39-1.513.636-2.253.076-.227.319-.555.5-.566.96-.057 1.517-.522 1.778-1.43.12-.42.442-.495.799-.26.263.172.518.367.743.587.712.693 1.402 1.41 2.114 2.103.996.97 1.034 1.121.42 2.388-.147.303-.356.576-.508.877-.247.49-.638.716-1.168.85-1.289.327-2.561.718-3.839 1.089-1.004.291-2.005.59-3.027.893l.346 1.121 13.986-4.026-.318-1.133-5.251 1.492c.315-.945.631-1.854.92-2.773.11-.356.286-.543.674-.639.265-.065.491-.342.7-.558.131-.138.198-.338.357-.624l2.346 2.204-2.832-9.84Z" fill-rule="evenodd" fill="#78a688" transform="translate(-628.304 210.174)" data-name="Path 184"/><path d="m1041.195 433.708-.356 4.484-11.774-.871-.018-.117c4.033-1.16 8.066-2.32 12.148-3.496Z" fill-rule="evenodd" fill="#78a688" transform="translate(-704.898 86.092)" data-name="Path 185"/><path d="M1099.645 338.456c-.95-2.491-1.556-4.93-1.091-7.548.182-1.028.165-2.093.241-3.184-.657-.056-1.242-.142-1.827-.147-.454-.004-.63-.206-.704-.618-.063-.35-.186-.689-.304-1.11l2.881.201c.253.018.505.05.758.06 1.102.044 1-.085.925 1.027-.236 3.5-.513 6.999-.778 10.498-.018.249-.06.495-.1.821Z" fill-rule="evenodd" fill="#78a688" transform="translate(-763.311 180.25)" data-name="Path 186"/><path d="m1036.096 471.667 8.419.615-1.716 3.178-6.73-3.64.027-.153Z" fill-rule="evenodd" fill="#78a688" transform="translate(-711.028 52.955)" data-name="Path 187"/><path d="m1135.396 368.061 2.238 1.208-2.562 4.741-.126-.023.45-5.926Z" fill-rule="evenodd" fill="#78a688" transform="translate(-797.345 143.4)" data-name="Path 188"/><path d="M973.938 343.492c-.014.78-.65 1.37-1.451 1.343a1.393 1.393 0 0 1-1.366-1.446c.023-.75.717-1.398 1.466-1.368.775.031 1.366.674 1.351 1.471Z" fill-rule="evenodd" fill="#78a688" transform="translate(-654.33 166.133)" data-name="Path 189"/></g><defs><linearGradient x1=".5" y1="0" x2=".5" y2="1" id="a"><stop stop-color="#93c59b" offset="0"/><stop stop-color="#678f7b" offset="1"/></linearGradient><linearGradient x1=".5" y1="0" x2=".5" y2="1" id="b"><stop stop-color="#93c59b" offset="0"/><stop stop-color="#678f7b" offset="1"/></linearGradient><linearGradient x1=".5" y1="0" x2=".5" y2="1" id="c"><stop stop-color="#93c59b" offset="0"/><stop stop-color="#678f7b" offset="1"/></linearGradient><linearGradient x1=".5" y1="0" x2=".5" y2="1" id="d"><stop stop-color="#93c59b" offset="0"/><stop stop-color="#678f7b" offset="1"/></linearGradient><linearGradient x1=".5" y1="0" x2=".5" y2="1" id="e"><stop stop-color="#93c59b" offset="0"/><stop stop-color="#678f7b" offset="1"/></linearGradient><linearGradient x1=".5" y1="0" x2=".5" y2="1" id="f"><stop stop-color="#93c59b" offset="0"/><stop stop-color="#678f7b" offset="1"/></linearGradient></defs></svg>