<svg xmlns="http://www.w3.org/2000/svg" width="21.702" height="25.256" viewBox="-1141.5 -56.125 21.702 25.256"><path d="M-1141.5-32.268v-22.433c.016-.034.038-.066.049-.1.273-.896.848-1.324 1.78-1.324h17.82c.178 0 .357-.004.533.015.606.064 1.047.379 1.328.914.081.156.129.33.192.495v17.598c-.086.072-.174.142-.257.217-2.158 1.955-4.314 3.912-6.477 5.862a.599.599 0 0 1-.364.149c-4.308.007-8.616.007-12.924.004-.721 0-1.342-.46-1.577-1.142-.03-.086-.069-.17-.103-.255Zm14.065-1.38h-10.961c-.493 0-.553-.052-.553-.542V-52.8c0-.496.054-.55.542-.55l10.344.001h.27c-.008.04-.007.052-.012.057l-.123.113c-1.29 1.2-1.902 2.671-1.707 4.435.195 1.772 1.542 2.804 3.296 2.48 1.85-.341 3-1.584 3.815-3.189.038-.075-.059-.218-.093-.33-.104.051-.248.075-.305.158-.21.308-.366.655-.589.953-.684.912-1.516 1.636-2.656 1.918-1.576.391-2.822-.426-3.01-1.997-.198-1.646.374-3.01 1.586-4.126.116-.107.18-.27.267-.408l-.065-.064h4.495c.49 0 .544.054.543.548l-.004 14.73v.401h1.776c.006-.108.014-.199.014-.29l.005-16.332c0-.726-.364-1.085-1.09-1.085h-17.99c-.066 0-.132-.003-.197.001a.933.933 0 0 0-.897.879c-.01.14-.006.28-.006.421v20.97c0 .16-.003.32.002.479.018.64.389 1.004 1.027 1.004 3.992 0 7.984-.001 11.975-.003.098 0 .197-.01.301-.016v-2.006Zm.782 1.556 5.447-4.788h-5.447v4.788Zm3.087-13.375h-14.098v.367h14.098v-.367Zm-.002 2.472h-14.096v.374h14.096v-.374Zm-14.102 2.847h14.094v-.369h-14.094v.369Zm-.005 2.526h14.099v-.368h-14.099v.368Zm12.464-12.63c.138-.09.271-.142.349-.238.06-.076.093-.222.061-.308-.02-.053-.188-.078-.283-.066-.085.01-.167.08-.24.138-.15.117-.258.088-.374-.058-.281-.35-.582-.686-.856-1.041-.07-.09-.064-.237-.114-.349-.047-.105-.12-.198-.183-.297-.088.076-.187.142-.26.23-.037.043-.026.125-.04.19-.316 1.471-.637 2.943-.943 4.417-.021.106.037.298.117.34.175.093.268-.056.311-.214.13-.47.256-.94.387-1.408.022-.077.046-.182.103-.216.511-.306 1.03-.6 1.55-.898.323.359.62.684.91 1.014.111.126.226.258.397.119.177-.144.062-.286-.046-.409-.273-.309-.549-.614-.846-.947Zm-8.84 2.295h-2.923c-.169 0-.34-.014-.505.011-.07.01-.126.106-.188.163.062.057.12.12.188.169.025.018.072.005.11.005h6.634c.047 0 .108.013.137-.01.059-.049.128-.114.138-.18.006-.043-.077-.12-.136-.145-.064-.027-.147-.012-.222-.012h-3.233Zm-.015 12.476v-.002h-3.12c-.093 0-.193-.016-.279.01-.075.025-.134.1-.2.152.067.062.13.132.204.183.033.022.092.004.138.004h6.52c.066 0 .143.02.194-.009.064-.034.148-.108.147-.164-.001-.057-.085-.136-.15-.162-.073-.03-.166-.012-.25-.012h-3.204Zm10.641-16.29c-.054-.15-.078-.298-.156-.408-.063-.09-.198-.2-.285-.187-.168.024-.182.18-.138.334.147.532.145.532-.317.812-.023.014-.06.023-.07.044-.043.108-.08.219-.119.328.115.021.243.085.34.054.164-.052.308-.165.476-.261.06.199.117.376.166.555.043.157.14.275.295.196.079-.041.144-.21.13-.308-.032-.236-.114-.466-.178-.703.17-.1.338-.172.47-.285.066-.055.122-.23.087-.272a.36.36 0 0 0-.295-.104c-.13.025-.248.121-.406.206Z" fill-rule="evenodd" fill="#78a688" data-name="Path 176"/></svg>