<svg xmlns="http://www.w3.org/2000/svg" width="31.857" height="25.485" viewBox="319.5 746.5 31.857 25.485"><path d="M11.15 12.743A6.37 6.37 0 1 0 11.15 0a6.37 6.37 0 1 0 0 12.743Zm4.46 1.592h-.832a8.674 8.674 0 0 1-7.257 0H6.69A6.692 6.692 0 0 0 0 21.025v2.071a2.39 2.39 0 0 0 2.39 2.39h17.52a2.39 2.39 0 0 0 2.39-2.39v-2.07a6.692 6.692 0 0 0-6.69-6.69Zm16.077-6.39-1.383-1.4a.59.59 0 0 0-.837-.004l-5.216 5.176-2.265-2.28a.59.59 0 0 0-.836-.004L19.75 10.82a.59.59 0 0 0-.005.837l4.067 4.096a.59.59 0 0 0 .836.005l7.033-6.979a.595.595 0 0 0 .005-.836Z" fill-rule="evenodd" fill="#78a688" transform="translate(319.5 746.5)" data-name="Icon awesome-user-check"/></svg>