<svg xmlns="http://www.w3.org/2000/svg" width="24.735" height="26.67" viewBox="67.611 745.744 24.735 26.67"><path d="M-418.72 310.67h-21.218c-.04-.037-.072-.093-.118-.11-1.242-.437-1.487-.775-1.487-2.06v-19.057c0-1.737.86-2.586 2.62-2.59 1.145-.001 2.29-.031 3.433.014.527.02.703-.123.636-.646-.119-.92.02-1.75.961-2.221h.83c.804.383 1.117 1.033 1.042 1.9-.014.156.014.317-.008.472-.054.382.088.496.479.49 1.497-.023 2.996-.04 4.492.006.61.02.84-.137.754-.758-.13-.935.116-1.707 1.064-2.11h.712c.539.282 1.005.63 1.058 1.3.027.333.036.673.003 1.005-.044.427.075.576.538.562a76.47 76.47 0 0 1 3.553-.01c1.71.026 2.567.896 2.567 2.584.001 6.378 0 12.756-.001 19.133 0 1.095-.588 1.78-1.688 1.976-.09.016-.204-.024-.222.12Zm-10.494-16.184c3.338 0 6.675-.004 10.012.006.354.001.522-.042.515-.47-.028-1.618-.02-3.238-.003-4.857.003-.34-.1-.429-.431-.423-1.086.02-2.172.009-3.258.007-1.018-.002-1.018-.003-1.08 1.006-.05.785-.659 1.372-1.42 1.368-.804-.004-1.401-.591-1.434-1.41-.004-.12-.015-.24.005-.356.079-.473-.071-.638-.587-.623-1.38.042-2.764.015-4.146.015-.92 0-.918-.001-.984.925-.01.137-.04.274-.073.407-.179.699-.812 1.115-1.568 1.035-.659-.07-1.167-.632-1.191-1.325-.008-.217-.022-.436 0-.65.032-.312-.086-.403-.395-.4-1.323.016-2.647.022-3.97 0-.374-.007-.462.11-.457.469.02 1.48.011 2.961.011 4.442 0 .833-.001.833.857.833h9.597Zm-2.209 7.469c.01-.017.013-.044.027-.05.088-.046.176-.09.266-.128 1.011-.424 1.567-1.184 1.56-2.28-.006-1.094-.573-1.864-1.572-2.285-1.274-.539-2.576-.425-3.87-.07-1.3.359-1.298.366-.933 1.614.023.075.04.152.053.23.062.381.21.41.57.25.815-.364 1.671-.601 2.571-.291.427.146.71.446.733.905.023.45-.199.784-.607.997-.303.158-.627.207-.957.267-.436.079-1.05-.203-1.27.167-.208.353-.043.92-.069 1.39-.017.311.091.41.404.406.568-.006 1.14-.054 1.701.118.732.225 1.098.67 1.071 1.352-.023.602-.41.988-1.133 1.159-.989.233-1.906-.03-2.817-.375-.133-.05-.34-.247-.403-.074-.195.549-.328 1.122-.457 1.692-.028.121.149.174.252.215 1.828.73 3.668.869 5.475-.029 1.147-.57 1.736-1.703 1.594-2.853-.157-1.269-.808-1.96-2.189-2.327Zm6.54-2.717v.643c0 1.856-.01 3.712.005 5.567.005.624-.275 1.481.116 1.806.378.313 1.204.07 1.832.101.33.017.43-.078.43-.42-.014-3.218-.015-6.436 0-9.654.002-.383-.132-.428-.474-.456-1.057-.085-2.02.133-2.918.699-.446.281-1.169.341-1.343.768-.167.41.143 1.009.216 1.529.044.311.154.356.427.218.538-.27 1.09-.513 1.708-.801Z" fill-rule="evenodd" fill="#78a688" transform="translate(509.154 461.744)"  data-name="ic_calendra" /></svg>