<svg xmlns="http://www.w3.org/2000/svg" width="15.412" height="21.577" viewBox="73.444 506.837 15.412 21.577"><path d="M14.834 5.332c.32 0 .578-.258.578-.578V2.828a.578.578 0 0 0-.578-.578H.578A.578.578 0 0 0 0 2.828v2.155c0 .32.259.578.578.578h4.107c1.316 0 2.325.48 2.937 1.313H.578A.578.578 0 0 0 0 7.452v1.926c0 .32.259.578.578.578h7.646c-.3 1.738-1.587 2.824-3.6 2.824H.578a.578.578 0 0 0-.578.578v2.553c0 .161.067.315.186.425l7.95 7.338a.578.578 0 0 0 .391.153h3.977a.578.578 0 0 0 .392-1.003l-7.267-6.708c3.684-.112 6.316-2.571 6.662-6.16h2.543c.32 0 .578-.259.578-.578V7.452a.578.578 0 0 0-.578-.578h-2.827a6.597 6.597 0 0 0-.686-1.542h3.513Z" fill-rule="evenodd" fill="#78a688" transform="translate(73.444 504.587)" data-name="Icon awesome-rupee-sign"/></svg>