<svg xmlns="http://www.w3.org/2000/svg" width="15.422" height="17.625" viewBox="338.578 135.32 15.422 17.625"><path d="M338.578 151.292c0 .913.74 1.653 1.652 1.653h12.118c.912 0 1.652-.74 1.652-1.653v-9.363h-15.422v9.363Zm11.016-6.747c0-.227.186-.413.413-.413h1.377c.227 0 .413.186.413.413v1.377a.414.414 0 0 1-.413.413h-1.377a.414.414 0 0 1-.413-.413v-1.377Zm0 4.407c0-.228.186-.414.413-.414h1.377c.227 0 .413.186.413.414v1.376a.414.414 0 0 1-.413.414h-1.377a.414.414 0 0 1-.413-.414v-1.376Zm-4.406-4.407c0-.227.185-.413.413-.413h1.377c.227 0 .413.186.413.413v1.377a.414.414 0 0 1-.413.413H345.6a.414.414 0 0 1-.413-.413v-1.377Zm0 4.407c0-.228.185-.414.413-.414h1.377c.227 0 .413.186.413.414v1.376a.414.414 0 0 1-.413.414H345.6a.414.414 0 0 1-.413-.414v-1.376Zm-4.407-4.407c0-.227.186-.413.413-.413h1.377c.227 0 .413.186.413.413v1.377a.414.414 0 0 1-.413.413h-1.377a.414.414 0 0 1-.413-.413v-1.377Zm0 4.407c0-.228.186-.414.413-.414h1.377c.227 0 .413.186.413.414v1.376a.414.414 0 0 1-.413.414h-1.377a.414.414 0 0 1-.413-.414v-1.376Zm11.567-11.43h-1.653v-1.652a.552.552 0 0 0-.55-.55h-1.102a.552.552 0 0 0-.55.55v1.653h-4.407v-1.653a.552.552 0 0 0-.55-.55h-1.102a.552.552 0 0 0-.551.55v1.653h-1.653c-.912 0-1.652.74-1.652 1.652v1.653H354v-1.653c0-.912-.74-1.652-1.652-1.652Z" fill="#4d575d" fill-rule="evenodd" data-name="Icon awesome-calendar-alt"/></svg>