<?xml version="1.0" encoding="utf-8"?>
<!-- Generator: Adobe Illustrator 27.8.0, SVG Export Plug-In . SVG Version: 6.00 Build 0)  -->
<svg version="1.1" id="Layer_1" xmlns="http://www.w3.org/2000/svg" xmlns:xlink="http://www.w3.org/1999/xlink" x="0px" y="0px"
	 viewBox="0 0 512 512" style="enable-background:new 0 0 512 512;" xml:space="preserve">
<style type="text/css">
	.st0{fill:#22B693;}
	.st1{fill:#03A07A;}
	.st2{fill:#E8FFFA;}
	.st3{fill:none;stroke:#22B693;stroke-width:18;stroke-linecap:round;stroke-linejoin:round;stroke-miterlimit:10;}
	.st4{fill:none;stroke:#22B693;stroke-width:2;stroke-miterlimit:10;}
	.st5{fill:none;stroke:#22B693;stroke-width:2;stroke-miterlimit:10;stroke-dasharray:11.9587,11.9587;}
	.st6{opacity:0.5;fill:#22B693;}
</style>
<path class="st0" d="M37.1,217.1v243c0,26.1,21.2,47.3,47.3,47.3h343.2c26.1,0,47.3-21.2,47.3-47.3v-243H37.1z M337.2,304.5
	c0,3.4-2.7,6.1-6.1,6.1H181c-3.4,0-6.1-2.7-6.1-6.1V277c0-11.3,9.2-20.5,20.5-20.5h121.3c11.3,0,20.5,9.2,20.5,20.5V304.5z"/>
<path class="st0" d="M484.8,222H27.2c-9.5,0-17.2-7.7-17.2-17.2v0c0-9.5,7.7-17.2,17.2-17.2h457.6c9.5,0,17.2,7.7,17.2,17.2v0
	C502,214.3,494.3,222,484.8,222z"/>
<rect x="37.1" y="222" class="st1" width="437.9" height="25"/>
<g>
	<path class="st1" d="M118.2,507.4H93.6V372.1c0-6.8,5.5-12.3,12.3-12.3h0c6.8,0,12.3,5.5,12.3,12.3V507.4z"/>
	<path class="st1" d="M193.3,507.4h-24.6V372.1c0-6.8,5.5-12.3,12.3-12.3h0c6.8,0,12.3,5.5,12.3,12.3V507.4z"/>
	<path class="st1" d="M268.3,507.4h-24.6V372.1c0-6.8,5.5-12.3,12.3-12.3h0c6.8,0,12.3,5.5,12.3,12.3V507.4z"/>
	<path class="st1" d="M343.3,507.4h-24.6V372.1c0-6.8,5.5-12.3,12.3-12.3l0,0c6.8,0,12.3,5.5,12.3,12.3V507.4z"/>
	<path class="st1" d="M418.4,507.4h-24.6V372.1c0-6.8,5.5-12.3,12.3-12.3l0,0c6.8,0,12.3,5.5,12.3,12.3V507.4z"/>
</g>
<path class="st1" d="M337.2,277v27.5c0,3.4-2.8,6.1-6.1,6.1H181c-1.3,0-2.5-0.4-3.4-1.1h149.1c3.5,0,6.3-2.8,6.3-6.3v-28.5
	c0-6.6-3-12.4-7.6-16.3C332.3,261.7,337.2,268.8,337.2,277z"/>
<rect x="-115" y="30" class="st0" width="30" height="30"/>
<rect x="-115" y="68" class="st1" width="30" height="30"/>
<rect x="-115" y="114" class="st2" width="30" height="30"/>
<rect x="-115" y="-8" class="st1" width="30" height="30"/>
<line class="st3" x1="-603.7" y1="-151.1" x2="-516.1" y2="-82.9"/>
<g>
	<line class="st3" x1="-255" y1="-141.5" x2="-235.4" y2="-158.9"/>
	<line class="st3" x1="-318.4" y1="-85.1" x2="-277.3" y2="-121.1"/>
</g>
<line class="st3" x1="-417" y1="-187" x2="-417" y2="-117.4"/>
<g>
	<g>
		<line class="st4" x1="263.7" y1="187.6" x2="263.7" y2="181.6"/>
		<path class="st5" d="M263.7,169.6v-10.5c0-16.6-13.5-30.1-30.1-30.1H136c-16.6,0-30.1-13.5-30.1-30.1v-0.8
			c0-16.6,13.5-30.1,30.1-30.1h134.8c13.8,0,25.5-9.3,29-22"/>
		<path class="st4" d="M300.9,40.1c0.1-0.7,0.1-1.5,0.1-2.2v-3.8"/>
	</g>
</g>
<path class="st0" d="M296.5,37.4l5.1-10.8c1.9-4,6.8-5.8,10.8-3.9l0,0c4,1.9,5.8,6.8,3.9,10.8l-5.1,10.8c-1.9,4-6.8,5.8-10.8,3.9
	l0,0C296.3,46.3,294.6,41.4,296.5,37.4z"/>
<path class="st6" d="M309.9,36.5l9-1.2c4.5-0.6,8.7,2.6,9.3,7.1l0.1,0.8c0.6,4.5-2.6,8.7-7.1,9.3l-0.8,0.1c-4.5,0.6-8.7-2.6-9.3-7.1
	L309.9,36.5z"/>
<path class="st6" d="M302.9,35.4l-8.8,2.2c-4.4,1.1-8.9-1.6-10.1-6l-0.2-0.8c-1.1-4.4,1.6-8.9,6-10.1l0.8-0.2
	c4.4-1.1,8.9,1.6,10.1,6L302.9,35.4z"/>
</svg>
