<?xml version="1.0" encoding="utf-8"?>
<!-- Uploaded to: SVG Repo, www.svgrepo.com, Generator: SVG Repo Mixer Tools -->
<svg fill="#FFFFFF" width="800px" height="800px" viewBox="0 0 32 32" version="1.1" xmlns="http://www.w3.org/2000/svg">
<title>calendar-exclamation</title>
<path d="M28 5.25h-1.25v-3.25c0-0.414-0.336-0.75-0.75-0.75s-0.75 0.336-0.75 0.75v0 3.25h-18.5v-3.25c0-0.414-0.336-0.75-0.75-0.75s-0.75 0.336-0.75 0.75v0 3.25h-1.25c-1.518 0.002-2.748 1.232-2.75 2.75v19.998c0.002 1.518 1.232 2.748 2.75 2.75h24c1.518-0.002 2.748-1.232 2.75-2.75v-19.998c-0.002-1.518-1.232-2.748-2.75-2.75h-0zM4 6.75h24c0.69 0.001 1.249 0.56 1.25 1.25v3.25h-26.5v-3.25c0.001-0.69 0.56-1.249 1.25-1.25h0zM28 29.248h-24c-0.69-0.001-1.249-0.56-1.25-1.25v-15.248h26.5v15.248c-0.001 0.69-0.56 1.249-1.25 1.25h-0zM15.965 22.748c0.414-0 0.75-0.336 0.75-0.75v0-5.998c0-0.414-0.336-0.75-0.75-0.75s-0.75 0.336-0.75 0.75v0 5.998c0 0.414 0.336 0.75 0.75 0.75v0zM15.46 25.459c-0.123 0.145-0.198 0.334-0.2 0.541v0c-0.001 0.016-0.002 0.034-0.002 0.052 0 0.082 0.015 0.16 0.044 0.231l-0.002-0.004c0.039 0.094 0.093 0.173 0.16 0.24l0 0c0.071 0.076 0.158 0.137 0.255 0.178l0.005 0.002c0.084 0.026 0.18 0.041 0.28 0.041s0.196-0.015 0.287-0.043l-0.007 0.002c0.102-0.043 0.189-0.104 0.26-0.179l0-0c0.067-0.067 0.12-0.147 0.157-0.235l0.002-0.005c0.038-0.079 0.061-0.173 0.061-0.271 0-0.003-0-0.006-0-0.009v0c-0.010-0.209-0.092-0.397-0.221-0.542l0.001 0.001c-0.145-0.121-0.334-0.195-0.54-0.195s-0.395 0.074-0.541 0.196l0.001-0.001z"></path>
</svg>