<svg xmlns="http://www.w3.org/2000/svg" width="19.948" height="26.597" viewBox="73.354 375.919 19.948 26.597"><path d="M90.809 379.243h-4.156a3.328 3.328 0 0 0-3.325-3.324 3.328 3.328 0 0 0-3.324 3.324h-4.156a2.494 2.494 0 0 0-2.494 2.494v18.286a2.494 2.494 0 0 0 2.494 2.493h14.96a2.494 2.494 0 0 0 2.494-2.493v-18.286a2.494 2.494 0 0 0-2.493-2.494ZM78.34 397.945c-.69 0-1.247-.556-1.247-1.247 0-.691.556-1.247 1.247-1.247.691 0 1.247.556 1.247 1.247 0 .69-.556 1.247-1.247 1.247Zm0-4.987c-.69 0-1.247-.556-1.247-1.247 0-.691.556-1.247 1.247-1.247.691 0 1.247.556 1.247 1.247 0 .69-.556 1.247-1.247 1.247Zm0-4.987c-.69 0-1.247-.556-1.247-1.247 0-.691.556-1.247 1.247-1.247.691 0 1.247.556 1.247 1.247 0 .69-.556 1.247-1.247 1.247Zm4.987-9.974c.691 0 1.247.555 1.247 1.246s-.556 1.247-1.247 1.247c-.69 0-1.247-.556-1.247-1.247 0-.69.556-1.246 1.247-1.246Zm6.65 19.116a.417.417 0 0 1-.416.416h-7.48a.417.417 0 0 1-.416-.416v-.83c0-.23.187-.416.415-.416h7.48c.23 0 .417.187.417.415v.831Zm0-4.987a.417.417 0 0 1-.416.416h-7.48a.417.417 0 0 1-.416-.416v-.83c0-.23.187-.416.415-.416h7.48c.23 0 .417.187.417.415v.831Zm0-4.987a.417.417 0 0 1-.416.416h-7.48a.417.417 0 0 1-.416-.416v-.83c0-.23.187-.416.415-.416h7.48c.23 0 .417.187.417.415v.831Z" fill="#78a688" fill-rule="evenodd" data-name="Icon awesome-clipboard-list"/></svg>