<!DOCTYPE svg PUBLIC "-//W3C//DTD SVG 1.1//EN" "http://www.w3.org/Graphics/SVG/1.1/DTD/svg11.dtd">
<!-- Uploaded to: SVG Repo, www.svgrepo.com, Transformed by: SVG Repo Mixer Tools -->
<svg fill="#ffffff" height="64px" width="64px" version="1.1" id="Capa_1" xmlns="http://www.w3.org/2000/svg" xmlns:xlink="http://www.w3.org/1999/xlink" viewBox="0 0 612.002 612.002" xml:space="preserve" stroke="#ffffff">
<g id="SVGRepo_bgCarrier" stroke-width="0"/>
<g id="SVGRepo_tracerCarrier" stroke-linecap="round" stroke-linejoin="round"/>
<g id="SVGRepo_iconCarrier"> <g> <g> <path d="M117.887,296.56h376.221c3.078,0,5.823-1.925,6.873-4.816c1.053-2.889,0.179-6.129-2.18-8.101 c-56.397-47.21-60.381-118.698-60.239-139.723c2.042-44.519-9.714-81.5-34.003-106.948C381.47,12.786,347.393,0,306.002,0 c-41.375,0-75.451,12.776-98.537,36.952c-24.281,25.422-36.044,62.365-34.028,106.837c0.162,21.033-3.757,92.577-60.239,139.855 c-2.36,1.973-3.23,5.212-2.182,8.102C112.068,294.637,114.811,296.56,117.887,296.56z"/> <path d="M536.756,545.98c-0.932-27.225-4.126-54.574-8.874-81.376c-5.756-32.468-13.085-80.065-41.43-101.224 c-16.392-12.234-37.62-16.247-56.389-23.624c-11.133-4.375-20.865-8.702-29.981-13.95H211.919 c-9.115,5.247-18.846,9.575-29.98,13.95c-18.77,7.375-39.998,11.389-56.389,23.624c-28.353,21.158-35.674,68.756-41.43,101.224 c-4.752,26.802-7.941,54.153-8.875,81.376c-0.722,21.087,9.687,24.044,27.335,30.41c22.088,7.968,44.897,13.881,67.858,18.727 c44.342,9.364,90.049,16.561,135.563,16.885c45.51-0.323,91.221-7.52,135.563-16.885c22.961-4.846,45.771-10.761,67.858-18.727 C527.066,570.024,537.478,567.067,536.756,545.98z"/> </g> </g> </g>
</svg>