<svg xmlns="http://www.w3.org/2000/svg" width="24" height="24" viewBox="0 0 512 512" xml:space="preserve"><path d="m486.302 285.135-44.625 39.5-126.062 111.547a42.977 42.977 0 0 1-28.453 10.75c-3.031 0-6.063-.281-9.094-.938l-72.047-15.953-87.016-19.219-61.015-13.484-8.734-1.953c-2.75-.938-5.219-2.172-7.375-3.75-3.469-2.531-6.219-5.781-8.094-9.547a26.57 26.57 0 0 1-2.953-12.188c0-2.594.438-5.344 1.219-8.016a28.482 28.482 0 0 1 3.984-7.797c2.453-3.469 5.781-6.219 9.531-8.094 3.688-1.953 7.875-2.953 12.125-2.953h.672l47.422 10.406 60.797 13.281 105.578 23.094c5.109 1.156 10.313 1.656 15.5 1.656 2.969 0 5.859-.141 8.75-.5a73.242 73.242 0 0 0 39.781-17.766l3.609-3.172L465.145 259.07l41.75-36.984c5.406-4.766 6.563-12.484 3.234-18.547a12.969 12.969 0 0 0-1.938-2.891c-5.484-6.281-15.094-6.859-21.375-1.297l-44.625 39.5L316.13 350.4a42.953 42.953 0 0 1-28.469 10.766c-3.031 0-6.063-.297-9.094-.938l-72.047-15.969-87.016-19.203-61-13.5-.094-.016v-.203l-.422-.078-8.734-1.938c-.438-.156-.813-.359-1.234-.516-1.063-.453-2.125-.828-3.109-1.438-.859-.359-1.734-.938-2.516-1.516-3.469-2.531-6.219-5.781-8.094-9.531a26.414 26.414 0 0 1-2.969-12.203c0-2.609.438-5.344 1.234-8.016.938-2.891 2.313-5.484 3.969-7.797 2.453-3.469 5.781-6.203 9.531-8.078 3.688-1.953 7.875-2.969 12.141-2.969.719 0 1.438.078 2.172.078l33.344 7.219 29.531 6.344 145.875 31.563c18.047 3.969 36.891-.938 50.75-13.219l89.672-78.984 53.656-47.234 37.906-33.422c8.234-7.297 11.703-18.563 8.875-29.172a29.002 29.002 0 0 0-22.016-21.156l-11.422-2.453-83.17-17.983-105.344-22.75c-18.047-3.969-36.891.938-50.75 13.219L96.552 172.932l-42.328 37.172-36.813 32.359a38.595 38.595 0 0 0-3.969 5.328c-.656.797-1.234 1.516-1.813 2.391-3.609 4.906-6.5 10.547-8.438 16.688a57.042 57.042 0 0 0-2.688 17.25c0 12.344 3.984 24.109 10.969 33.797 2.203 3.063 4.813 5.844 7.594 8.453l-.141.141-2.031 1.734c-1.516 1.734-2.813 3.453-3.969 5.344a30.403 30.403 0 0 0-1.797 2.375c-3.609 4.906-6.5 10.547-8.453 16.688a57.52 57.52 0 0 0-2.672 17.25c0 12.328 3.969 24.109 10.969 33.781a56.771 56.771 0 0 0 12.797 12.859 55.638 55.638 0 0 0 16.656 8.375l.656.219 64.188 14.078 60.797 13.281 105.578 23.109c5.125 1.156 10.328 1.656 15.516 1.656a73.542 73.542 0 0 0 48.531-18.266l3.609-3.172 125.343-110.984 41.734-36.969c6.281-5.547 6.859-15.156 1.297-21.438-5.482-6.281-15.075-6.859-21.372-1.296z" style="fill:#008666"/></svg>