<svg xmlns="http://www.w3.org/2000/svg" width="20.056" height="26.741" viewBox="36.594 499.868 20.056 26.741"><path d="M54.143 503.21h-4.179a3.346 3.346 0 0 0-3.342-3.342 3.346 3.346 0 0 0-3.343 3.343h-4.178a2.508 2.508 0 0 0-2.507 2.507v18.384a2.508 2.508 0 0 0 2.507 2.507h15.042a2.508 2.508 0 0 0 2.506-2.507v-18.384a2.508 2.508 0 0 0-2.506-2.507Zm-12.535 18.803a1.25 1.25 0 0 1-1.254-1.253 1.25 1.25 0 0 1 1.254-1.254 1.25 1.25 0 0 1 1.253 1.254 1.25 1.25 0 0 1-1.253 1.253Zm0-5.014a1.25 1.25 0 0 1-1.254-1.253 1.25 1.25 0 0 1 1.254-1.254 1.25 1.25 0 0 1 1.253 1.254 1.25 1.25 0 0 1-1.253 1.253Zm0-5.014a1.25 1.25 0 0 1-1.254-1.253 1.25 1.25 0 0 1 1.254-1.254 1.25 1.25 0 0 1 1.253 1.254 1.25 1.25 0 0 1-1.253 1.253Zm5.014-10.028a1.25 1.25 0 0 1 1.253 1.254 1.25 1.25 0 0 1-1.253 1.253 1.25 1.25 0 0 1-1.254-1.253 1.25 1.25 0 0 1 1.254-1.254Zm6.685 19.22a.42.42 0 0 1-.418.418h-7.52a.42.42 0 0 1-.419-.418v-.835a.42.42 0 0 1 .418-.418h7.521a.42.42 0 0 1 .418.418v.835Zm0-5.014a.42.42 0 0 1-.418.418h-7.52a.42.42 0 0 1-.419-.418v-.835a.42.42 0 0 1 .418-.418h7.521a.42.42 0 0 1 .418.418v.835Zm0-5.013a.42.42 0 0 1-.418.417h-7.52a.42.42 0 0 1-.419-.417v-.836a.42.42 0 0 1 .418-.418h7.521a.42.42 0 0 1 .418.418v.836Z" fill="#2c3134" fill-rule="evenodd" data-name="Icon awesome-clipboard-list"/></svg>