<svg xmlns="http://www.w3.org/2000/svg" width="23.378" height="23.378" viewBox="34.638 502.957 23.378 23.378"><path d="M41.891 502.964c-.738-.07-1.424.385-1.613 1.102l-.676 2.569c8.567.25 14.362 5.964 14.725 14.475l2.6-.72c.717-.2 1.164-.9 1.078-1.64-.953-8.255-7.807-15.002-16.114-15.786Zm-2.67 5.114-4.559 17.328a.74.74 0 0 0 .913.902l17.306-4.799c-.195-7.986-5.62-13.34-13.66-13.429Zm1.26 13.875a1.461 1.461 0 1 1 0-2.923 1.461 1.461 0 0 1 0 2.923Zm2.192-6.941a1.461 1.461 0 1 1 0-2.922 1.461 1.461 0 0 1 0 2.922Zm4.75 4.749a1.461 1.461 0 1 1 0-2.923 1.461 1.461 0 0 1 0 2.923Z" fill="#2c3134" fill-rule="evenodd" data-name="Icon awesome-pizza-slice"/></svg>