<svg xmlns="http://www.w3.org/2000/svg" width="59" height="73" viewBox="-10862 -2679 59 73"><g data-name="CompositeLayer"><path d="M-10862-2679h59v73h-59v-73z" fill="#6ce3c6" fill-rule="evenodd" data-name="Rectangle 2413"/><path d="M-10832.5-2635.275c6.566 0 11.887-5.321 11.887-11.887 0-6.566-5.321-11.887-11.887-11.887-6.566 0-11.887 5.321-11.887 11.887 0 6.566 5.321 11.887 11.887 11.887Zm8.321 2.972h-1.55a16.184 16.184 0 0 1-6.77 1.486c-2.415 0-4.7-.539-6.771-1.486h-1.551c-6.891 0-12.482 5.59-12.482 12.482v3.863a4.459 4.459 0 0 0 4.458 4.458h32.69a4.459 4.459 0 0 0 4.458-4.458v-3.863c0-6.891-5.59-12.482-12.482-12.482Z" fill="#fff" fill-rule="evenodd" data-name="Icon awesome-user"/></g></svg>