<svg xmlns="http://www.w3.org/2000/svg" width="27" height="29.813" viewBox="332.285 65.225 27 29.813"><path d="M354.773 86.35c-1.129 0-2.182.374-2.934 1.123l-10.755-6.217c.076-.375.151-.675.151-1.05 0-.374-.075-.674-.15-1.048l10.604-6.142a4.527 4.527 0 0 0 3.084 1.198c2.481 0 4.512-2.023 4.512-4.494 0-2.472-2.03-4.495-4.512-4.495-2.482 0-4.513 2.023-4.513 4.495 0 .374.075.674.15 1.049l-10.604 6.142a4.527 4.527 0 0 0-3.084-1.199c-2.481 0-4.437 2.023-4.437 4.495 0 2.471 2.03 4.494 4.513 4.494 1.203 0 2.256-.45 3.083-1.198l10.68 6.217c-.076.3-.15.599-.15.974 0 2.397 1.955 4.344 4.362 4.344 2.406 0 4.361-1.947 4.361-4.344 0-2.398-1.955-4.345-4.361-4.345Z" fill="#fff" fill-rule="evenodd" data-name="Icon ionic-md-share"/></svg>