<svg xmlns="http://www.w3.org/2000/svg" width="39.492" height="31.593" viewBox="171.486 242.551 39.492 31.593"><path d="M184.321 264.27c-.147 0-.295.022-.435.068-.8.26-1.641.426-2.527.426-.885 0-1.726-.166-2.527-.426a1.408 1.408 0 0 0-.435-.067 6.911 6.911 0 0 0-6.91 6.95c.008 1.62 1.34 2.923 2.961 2.923h13.822c1.621 0 2.954-1.304 2.962-2.924a6.911 6.911 0 0 0-6.91-6.95Zm-2.962-1.974a5.924 5.924 0 1 0 0-11.847 5.924 5.924 0 0 0 0 11.847Zm26.657-19.745h-23.695c-1.633 0-2.962 1.372-2.962 3.06v2.863c1.445 0 2.783.419 3.95 1.099V246.5h21.72v17.77h-3.95v-3.948h-7.898v3.949h-4.704a7.864 7.864 0 0 1 2.449 3.949h15.09c1.633 0 2.962-1.373 2.962-3.06v-19.55c0-1.687-1.329-3.06-2.962-3.06Z" fill="#78a688" fill-rule="evenodd" data-name="Icon awesome-chalkboard-teacher"/></svg>